<?xml version="1.0" encoding="UTF-8"?>
<svg id="Layer_2" data-name="Layer 2" xmlns="http://www.w3.org/2000/svg" viewBox="0 0 143.24 195.55">
  <g id="Layer_1-2" data-name="Layer 1">
    <path d="m.1,0h141.34v69.38h-16.24v1.35c0,9.33.03,18.66,0,27.99,0,1.87-.14,3.7-.35,5.53-.55,4.84-3.14,7.01-8.02,6.84-4.22-.14-6.94-2.63-7.29-6.84-.21-2.59-.17-5.18-.38-7.77-.21-2.94-.31-5.94-.9-8.81-2.31-11.16-10.16-17.9-21.56-18.24-9.5-.28-19-.1-28.54-.1-.21,0-.41.1-.62.17v53.9h1.66c7.15,0,14.3.03,21.42-.03,2.59-.03,5.18-.21,7.74-.52,2.97-.38,5.84-1.24,8.64-2.76-4.32-4.28-5.77-9.64-6.25-15.69-1.76,2.63-3.84,4.32-6.53,4.7-3.28.45-6.6.41-9.98.59v-26.43c2.25,0,4.35-.17,6.46.03,7.64.69,11.33,4.46,11.78,12.13.21,3.66-.07,7.32.24,10.95.76,8.33,5.11,14.58,13.68,16.96,6.91,1.9,13.92,1.9,20.9.21,6.32-1.55,10.81-5.15,13.03-11.26l-.31,2.83c-6.6,29.26-35.07,51.27-69.24,51.27S8.15,144.35,1.55,115.08l-1.38-12.47h-.07v-55.28l43.74,11.64c2.63.69,5.29-.83,5.98-3.42.69-2.59-.86-5.25-3.45-5.94L.07,37.28v-6.32l43.74,11.64c2.63.69,5.29-.83,5.98-3.42.69-2.59-.86-5.25-3.45-5.94L.03,20.9v-6.32l43.74,11.71c2.63.69,5.29-.86,5.98-3.45.69-2.63-.86-5.29-3.45-6.01L0,4.42V0h.1Zm95.91,69.38c6.39,2.87,10.54,7.74,13.06,14.51v-14.51h-13.06Z" fill="#d4193c" fill-rule="evenodd"/>
    <path d="m142.38,195.34l-3.18-2.97-.48-.93h1.31l3.21,2.97-.86.93h0Zm-8.12-14.72v5.11h4.46v-5.11h-4.46Zm7.43,0v-1.21h-11.23v1.21h2.49v5.11h-1.17c-.1.03-.21.03-.28.1-.1.07-.17.1-.17.17-.03.07-.1.17-.1.28,0,.17.07.35.17.55.07.17.17.38.31.55.1.21.28.38.41.59.17.17.35.31.48.48.17.1.38.21.52.31.17.07.31.1.45.1.17,0,.28,0,.38-.03.03-.07.1-.1.17-.21.03-.07.03-.17.1-.31v-1.35h4.46v4.49h1.31v-10.81h1.69v-.03Zm-11.23,0h-3.35v10.81h-1.31v-7.53c-.28-.1-.55-.17-.79-.17-.21,0-.45.07-.66.17-.17.1-.35.21-.45.38-.17.17-.21.31-.31.55-.07.21-.07.41-.07.66v.55h-1.17c-.03-.31-.1-.59-.17-.86-.03-.28-.17-.55-.21-.76-.1-.21-.28-.38-.45-.48-.17-.17-.38-.21-.66-.21-.21,0-.41.07-.66.17-.17.1-.31.21-.45.41-.1.17-.21.38-.28.66-.07.21-.07.48-.07.76,0,.59.1,1.14.28,1.62.21.48.55.9.86,1.31.38.45.76.76,1.24,1.04.45.31.97.59,1.49.86l-.66,1.07c-.17-.07-.41-.21-.69-.38-.31-.17-.66-.38-.97-.66-.38-.21-.69-.55-1.04-.86-.31-.31-.66-.69-.9-1.14-.28-.38-.48-.86-.69-1.35-.17-.48-.21-1.04-.21-1.62,0-.48.07-.86.17-1.24.17-.45.31-.76.55-1.04.28-.28.55-.48.86-.66.38-.17.69-.28,1.14-.28.31,0,.59.07.83.1.21.1.41.21.59.38.17.1.28.28.38.38.1.17.21.31.28.41h.07c.1-.21.21-.41.38-.52.1-.17.28-.35.41-.38.17-.1.38-.17.55-.21.21-.07.38-.1.55-.1.21,0,.38.03.52.03.17.07.28.1.45.17v-2h-8.98v-1.21h13.65v1.14h-.07Zm-23.08,4.35v-1.21c-.17,0-.28.07-.31.07-.35,0-.55-.07-.76-.17-.21-.1-.41-.21-.59-.38-.1-.17-.21-.31-.35-.55-.03-.21-.1-.45-.1-.59,0-.17.07-.31.1-.55.07-.17.1-.28.21-.41.1-.17.28-.28.48-.31.17-.1.38-.17.69-.17s.66.1.93.21c.28.17.48.38.69.59.17.28.31.55.38.86.1.28.17.59.17.93,0,.31-.03.59-.17.9-.03.28-.17.48-.31.76-.17.21-.31.41-.48.59-.17.17-.38.31-.59.41-.17.17-.38.28-.55.31-.21.1-.38.17-.48.21-.31-.21-.59-.38-.93-.48-.28-.1-.59-.17-.86-.17-.41,0-.76.1-.97.28-.28.21-.38.45-.38.79,0,.17.07.38.17.55.1.17.21.28.38.45.17.1.38.17.59.21.21.03.48.1.69.1s.45,0,.66-.07c.21-.03.38-.1.59-.21.38.28.76.55,1.14.93.31.31.66.66.97.97s.59.66.86.9c.21.31.45.59.59.76l.93-.76c-.21-.21-.41-.55-.69-.79-.28-.31-.55-.66-.83-.97-.31-.35-.66-.59-.93-.93-.31-.28-.59-.55-.86-.76h0c.41-.21.76-.48,1.07-.79.38-.28.66-.59.86-.93.28-.38.45-.76.59-1.14.1-.38.17-.83.17-1.21,0-.28,0-.55-.07-.76-.03-.28-.1-.48-.21-.76-.07-.21-.17-.41-.28-.59-.17-.21-.28-.38-.38-.55h2.97v10.81h1.35v-10.81h3.18v-1.21h-14.58v1.21h2.21c-.17.21-.28.48-.38.76-.07.21-.1.48-.1.76,0,.38.03.76.21,1.07.1.38.31.66.52.93.28.28.59.48.93.66.31.17.76.21,1.21.21h.28c.17.14.28.07.38.07h0Zm-8.5-5.53h-1.04l-.31-.28c-.38-.31-.76-.66-1.07-.93-.31-.28-.59-.41-.86-.59-.21-.21-.41-.31-.66-.45-.17-.03-.38-.1-.55-.17-.17-.03-.31-.1-.48-.1h-2v-1.14h1.42c.28,0,.48,0,.66.03.21,0,.41.07.59.17.17.07.38.17.55.28.21.1.38.28.66.41.21.17.45.38.69.59.28.28.59.55.93.86l.03-.07c-.31-.48-.59-.93-.79-1.31-.28-.38-.48-.69-.66-.93-.21-.28-.38-.48-.55-.66s-.31-.31-.48-.38c-.17-.1-.31-.17-.48-.21-.17,0-.31-.07-.55-.07h-1.52v-1.14h1.49c.31,0,.59,0,.79.07.28.03.48.17.69.31.21.17.41.38.66.66.21.28.48.59.76,1.04.21.45.55.93.86,1.52.28.55.66,1.24,1.07,2.07l.17.41h0Zm3.35,1.17v-1.21h-5.84v1.21h1.24v10.81h1.31v-10.81h3.28Zm-16.24,3.18c-.31,0-.55.07-.79.21-.21.1-.45.28-.59.41-.1.21-.28.45-.31.69-.03.21-.1.45-.1.69,0,.28.07.48.1.76.1.28.21.48.45.69.17.17.31.31.59.48.21.1.48.17.76.17s.48-.07.76-.17c.28-.07.48-.21.76-.45.21-.21.38-.48.55-.79.1-.31.21-.69.21-1.14v-.38c-.17-.17-.28-.31-.48-.48-.17-.17-.31-.28-.55-.38-.21-.1-.41-.21-.66-.28-.28,0-.48-.03-.69-.03h0Zm10.4-3.18v-1.21h-14.75v1.21h6.6v2.94h0c-.1-.1-.28-.21-.45-.31s-.31-.21-.55-.31c-.21-.1-.41-.21-.69-.28-.21-.03-.48-.1-.76-.1-.41,0-.79.07-1.21.21-.31.17-.66.38-.93.66-.28.31-.48.66-.59,1.04-.17.38-.28.79-.28,1.31,0,.41.1.9.28,1.35.17.38.38.76.69,1.07.28.31.59.52,1.04.76.38.17.79.28,1.31.28.28,0,.55-.07.76-.1s.41-.17.59-.21c.17-.1.31-.21.41-.31.1-.03.21-.17.35-.21h0v3.07h1.35v-5.42c.03-.21.1-.41.28-.69.17-.21.31-.48.55-.69.21-.21.41-.38.69-.55.28-.1.52-.21.79-.21.21,0,.41.03.59.17.17.03.31.21.48.38.1.1.21.35.28.55.03.17.1.45.1.66s-.07.48-.1.69c-.1.21-.21.45-.31.59-.1.21-.28.38-.45.55s-.31.31-.48.41c-.17.17-.31.28-.48.38-.17.07-.28.17-.38.21l.69,1.24c.31-.21.66-.45.97-.69.31-.21.66-.55.93-.86s.48-.69.66-1.14c.17-.38.28-.86.28-1.35,0-.41-.1-.79-.21-1.21-.17-.38-.31-.69-.59-.97-.21-.28-.48-.48-.79-.66s-.69-.28-1.07-.28c-.48,0-.93.17-1.35.38-.38.21-.76.48-1.04.86h0v-3.14h6.81v-.07Zm-21.73,0h-4.22c.21.48.38.97.48,1.49.17.48.21.97.21,1.45,0,.21,0,.45-.07.66-.07.21-.1.45-.17.59v.07h3.73v-4.25h.03Zm3.04-1.17v1.21h-1.69v10.4c.1.03.21.03.31.07.28.1.55.21.76.41.21.17.38.38.48.66.1.28.17.55.17.86,0,.35-.07.66-.21.97-.1.28-.31.55-.59.76s-.59.45-1.04.55c-.38.1-.86.21-1.35.21-.66,0-1.17-.1-1.62-.28-.48-.17-.9-.38-1.31-.59-.38-.28-.69-.55-1.04-.79-.28-.31-.55-.59-.76-.86l.76-.86c.31.31.59.59.86.86s.59.48.86.69c.35.17.66.31,1,.41.31.1.76.17,1.21.17.31,0,.66-.03.9-.1.28-.1.48-.17.66-.28.17-.1.28-.28.31-.41.1-.1.1-.28.1-.45,0-.28-.07-.48-.28-.66s-.48-.21-.86-.21c-.21,0-.48,0-.76.1-.31.03-.66.21-.9.38l-.55-1.04c.31-.21.69-.38,1.14-.48.14-.03.24-.07.38-.1v-5.08h-4.6c-.28.21-.66.31-1.04.31v.07c.48.79,1.07,1.59,1.69,2.28.66.69,1.35,1.35,2.11,1.93l-.86.97c-.45-.31-.86-.69-1.31-1.07-.38-.38-.76-.79-1.14-1.17-.38-.45-.69-.86-1.04-1.31-.28-.41-.59-.86-.86-1.24-.21-.45-.48-.83-.69-1.24-.17-.38-.38-.69-.55-1.07l1.14-.55c.1.21.17.45.28.55.1.17.21.31.35.38.1.1.21.17.31.21.1.03.21.03.31.03.38,0,.66-.1.79-.41.21-.28.28-.66.28-1.14,0-.28,0-.52-.03-.79-.07-.28-.17-.55-.21-.76-.1-.28-.17-.48-.28-.69s-.21-.45-.28-.59h-3.42v-1.21h12.09Zm-13.79-3.63c-.28-.28-.48-.41-.69-.55-.17-.17-.45-.21-.69-.21-.38,0-.76.17-.97.41-.28.28-.38.69-.38,1.21,0,.21,0,.45.03.69.07.21.1.45.21.69.1.21.21.45.31.66.17.28.28.48.48.69h-1.35c-.31-.48-.52-.93-.69-1.42-.17-.48-.28-.97-.28-1.42,0-.41.1-.79.21-1.21.17-.31.31-.66.59-.86.21-.21.48-.41.83-.55.31-.1.66-.17.97-.17.48,0,.86.07,1.24.28.38.17.69.48,1.04.86l-.86.9h0Zm-7.26,4.8v5.11h4.39v-5.11h-4.39Zm8.95,0v-1.21h-12.68v1.21h2.45v5.11h-1.24c-.1.03-.17.03-.28.1-.07.07-.1.1-.17.17-.07.07-.07.17-.07.28,0,.17.07.35.1.55.1.17.21.38.31.55.17.21.28.38.45.59.17.17.38.31.55.48.17.1.31.21.52.31.17.07.35.1.45.1.17,0,.28,0,.31-.03.1-.07.17-.1.21-.21.03-.07.03-.17.03-.31.07-.1.07-.28.07-.45v-.9h4.39v4.49h1.31v-10.81h3.28v-.03Zm-24.77,3.18c-.31,0-.59.07-.79.21-.28.1-.41.28-.59.41-.17.21-.28.45-.31.69-.1.21-.17.45-.17.69,0,.28.03.48.17.76.1.28.21.48.38.69.17.17.38.31.59.48.28.1.48.17.79.17.21,0,.48-.07.76-.17.21-.07.48-.21.69-.45.21-.21.45-.48.55-.79.17-.31.21-.69.21-1.14v-.38c-.1-.17-.28-.31-.41-.48-.17-.17-.38-.28-.59-.38-.17-.1-.38-.21-.59-.28-.24,0-.45-.03-.69-.03h0Zm12.09-3.18h-8.5v3.14h.07c.28-.38.59-.66,1.04-.86.38-.21.79-.38,1.31-.38.38,0,.76.1,1.07.28s.59.38.86.66c.21.28.41.59.55.97.17.38.21.76.21,1.21,0,.48-.03.97-.28,1.35-.17.45-.38.83-.66,1.14-.28.31-.55.66-.86.86-.38.28-.69.48-1.04.69l-.69-1.24c.1-.07.21-.17.38-.21.17-.1.31-.21.48-.38.17-.1.31-.28.48-.41.17-.17.31-.31.48-.55.1-.17.21-.38.28-.59.1-.21.17-.48.17-.69s-.07-.48-.1-.66c-.1-.21-.21-.41-.31-.55-.1-.17-.28-.31-.41-.38-.21-.1-.38-.17-.59-.17-.28,0-.55.1-.79.21-.28.17-.48.31-.69.55-.21.21-.41.48-.55.69-.17.28-.28.48-.31.69v5.42h-1.31v-3.04h-.07s-.17.17-.28.21c-.17.1-.28.21-.48.31-.17.07-.31.17-.59.21-.21.07-.48.1-.76.1-.45,0-.93-.1-1.31-.28-.38-.21-.76-.41-1.04-.76s-.55-.69-.69-1.07c-.17-.45-.21-.93-.21-1.35,0-.48.07-.93.21-1.31.17-.38.38-.69.66-1.04.21-.28.55-.48.9-.66s.69-.21,1.14-.21c.28,0,.55.07.79.1.21.07.48.17.66.28.21.1.45.21.59.31.17.1.28.21.38.31h.07v-2.94h-6.67v-1.21h16.48v1.24h-.07Zm-22.42,10.99c-.28,0-.48-.1-.66-.28-.17-.17-.28-.38-.28-.66,0-.21.1-.41.28-.59.17-.21.38-.28.66-.28.21,0,.41.07.59.28.21.17.28.38.28.59,0,.28-.03.48-.28.66-.14.14-.38.28-.59.28h0Zm0-6.81c-.28,0-.48-.1-.66-.28-.17-.17-.28-.38-.28-.66,0-.21.1-.41.28-.59.17-.21.38-.28.66-.28.21,0,.41.07.59.28.21.17.28.38.28.59,0,.28-.03.48-.28.66-.14.17-.38.28-.59.28h0Zm-3.32-4.18h-1.66v10.81h-1.35v-10.81h-3.66v6.53c0,.1,0,.21-.03.35-.07.1-.1.21-.17.28-.1.07-.21.1-.31.1-.17,0-.31-.03-.48-.17-.17-.03-.31-.21-.52-.31-.17-.17-.31-.31-.55-.55-.17-.21-.28-.38-.45-.59-.1-.21-.21-.38-.31-.59-.03-.17-.1-.38-.1-.48,0-.17.07-.28.1-.31.07-.1.17-.17.28-.21.1,0,.28-.07.41-.07h.86v-3.9h-2.56v-1.21h10.5v1.14h0Zm-13.96-1.17h-1.14l-.66-1.14c-.28-.59-.59-1.04-.79-1.42-.28-.35-.48-.59-.76-.76-.21-.21-.41-.31-.66-.38-.21,0-.41-.07-.69-.07h-1.55v-1.31h1.49c.28,0,.59.07.79.07.28.03.48.17.69.28.28.17.48.31.69.59.21.21.41.48.69.86.21.38.48.79.76,1.31.31.55.66,1.14,1.04,1.83l.1.14h0Zm3.45,1.17v-1.21h-5.8v1.21h1.24v10.81h1.31v-10.81h3.25Zm-12.82,0c.17.31.31.66.41,1.07.1.38.17.76.17,1.14,0,.28-.03.48-.1.76s-.17.48-.31.69c-.17.31-.35.48-.59.62-.21.21-.48.31-.79.45.1.38.21.66.38.9.17.28.31.48.55.66.17.17.41.28.66.31.28.1.52.1.79.1s.55,0,.79-.1c.28-.07.55-.1.79-.28.21-.1.45-.28.66-.41.21-.17.38-.31.55-.55v-5.36h-3.97Zm7.01,0v-1.21H.1v1.21h2.28c.17.21.28.38.38.59s.17.38.21.59c.1.17.1.31.17.48v.45c0,.21,0,.41-.1.59-.07.21-.17.38-.31.55-.17.17-.31.28-.59.45-.28.1-.55.17-.9.21.1.55.21,1.04.38,1.52s.38.9.69,1.31c.28.38.66.66,1.07.93.41.21.97.31,1.62.31.28,0,.59-.07.86-.1.28-.07.55-.1.79-.21.21-.07.45-.17.66-.28s.38-.28.55-.38h0v3.8h1.35v-10.81h1.66Z" fill="#231f20" fill-rule="evenodd"/>
  </g>
</svg>
