<?xml version="1.0" encoding="UTF-8"?>
<svg id="Layer_2" data-name="Layer 2" xmlns="http://www.w3.org/2000/svg" viewBox="0 0 597.7 298.28">
  <g id="Layer_1-2" data-name="Layer 1">
    <g>
      <g>
        <path d="m239.82,237.05h22.96l-1.1,5.28h-37.09l2.52-11.91c.45-2.01,1.42-3.61,2.89-4.82,1.47-1.21,3.19-1.82,5.16-1.82h16.34l3.93-18.54h-8.84l-1.48,7h-14.12l1.17-5.71c.45-1.99,1.41-3.58,2.89-4.78,1.47-1.19,3.19-1.79,5.16-1.79h23.82c2.01,0,3.49.61,4.46,1.81.96,1.21,1.22,2.82.77,4.82l-3.32,15.84c-.45,2.01-1.41,3.62-2.88,4.82-1.48,1.21-3.19,1.81-5.16,1.81h-16.33l-1.72,7.98Z" fill="#1a61ad"/>
        <path d="m305.46,235.7c-.45,2.01-1.41,3.61-2.88,4.82-1.48,1.2-3.19,1.81-5.16,1.81h-23.82c-2.01,0-3.49-.61-4.45-1.81-.96-1.21-1.22-2.82-.77-4.82l6.14-29.1c.45-2.01,1.41-3.61,2.89-4.82,1.47-1.2,3.19-1.81,5.16-1.81h23.83c2.01,0,3.49.61,4.45,1.81.96,1.21,1.22,2.82.77,4.82l-6.15,29.1Zm-16.52-30.46l-6.76,31.81h8.84l6.76-31.81h-8.84Z" fill="#1a61ad"/>
        <path d="m324.56,237.05h22.96l-1.1,5.28h-37.09l2.52-11.91c.45-2.01,1.41-3.61,2.89-4.82,1.47-1.21,3.19-1.82,5.16-1.82h16.34l3.93-18.54h-8.84l-1.48,7h-14.12l1.17-5.71c.45-1.99,1.41-3.58,2.89-4.78,1.47-1.19,3.19-1.79,5.16-1.79h23.82c2.01,0,3.49.61,4.46,1.81.96,1.21,1.22,2.82.77,4.82l-3.32,15.84c-.45,2.01-1.41,3.62-2.88,4.82-1.48,1.21-3.2,1.81-5.16,1.81h-16.33l-1.72,7.98Z" fill="#1a61ad"/>
        <path d="m390.2,235.7c-.45,2-1.41,3.61-2.89,4.82-1.47,1.2-3.19,1.81-5.16,1.81h-23.82c-2.01,0-3.49-.61-4.46-1.81-.96-1.21-1.22-2.82-.77-4.82l6.14-29.1c.45-2.01,1.41-3.61,2.88-4.82,1.48-1.2,3.2-1.81,5.16-1.81h23.82c2.01,0,3.49.6,4.46,1.79.96,1.19,1.22,2.79.77,4.78l-1.17,5.71h-14.12l1.47-7h-8.84l-2.82,13.26h22.97l-3.62,17.19Zm-20.45-11.91l-2.82,13.26h8.84l2.83-13.26h-8.84Z" fill="#1a61ad"/>
        <path d="m543.66,57.19c.02.86.02,1.71,0,2.57,0,1.8-.02,3.6-.01,5.39.01.69-.22,1.08-.99,1.01-.26-.02-.53-.02-.79-.01-.34,0-.67,0-1.01-.04-4.97-.05-9.95-.03-14.93-.01-.78.01-1.56.03-2.34,0-.85.04-1.7.02-2.55,0-.82,0-1.64.02-2.45,0-3.69-.06-7.37.04-11.04-.15q-2.21-.19-2.21,1.96c0,.8.04,1.62.02,2.42l-.08,1.45c-.24.97-.07,1.95-.1,2.92-.12,2.5-.34,4.99-.42,7.5-.2,1.33-.18,2.68-.3,4.03l-.07.99-.12,1.56c-.17.87-.14,1.77-.24,2.66-.2,1.03-.11,2.08-.29,3.1-.09.9-.18,1.79-.26,2.67-.2,1.03-.1,2.08-.28,3.11-.07.83-.2,1.67-.26,2.5-.18,1.01-.16,2.06-.3,3.08-.1.83-.18,1.66-.25,2.49l-.14,1.53c-.26.75-.09,1.55-.23,2.32-.19,1.19-.24,2.4-.36,3.6-.14,1.2-.23,2.41-.29,3.62-.15.95-.15,1.93-.26,2.88-.17,1.61-.23,3.22-.35,4.83-.22.64-.09,1.3-.11,1.95-.18,3.68-.39,7.37-.39,11.07,0,1.59.24,3.17.2,4.77l.11,1.26c.1,1.32.13,2.66.39,3.98l.12,1,.08.56.12.68c.17,1.1.4,2.19.7,3.26.2.65.34,1.3.55,1.93l.16.48.44,1.16.29.68c.36.98.85,1.91,1.44,2.78,1.38,2.14,3.07,3.97,5.34,5.2.79.42,1.58.82,2.44,1.06l.48.17.89.21,1.36.28c1.76.21,3.51.54,5.29.15h.3c1.1,0,2.14-.3,3.19-.61l.78-.19.95-.36c1.16-.39,2.26-.93,3.29-1.6.61-.46,1.26-.9,1.82-1.42l.94-.95c.53-.7,1.13-1.33,1.58-2.09.3-.49.62-.97.85-1.5l.61-1.23c.27-.54.47-1.11.67-1.68.36-1.13.71-2.26.91-3.42l.12-.84.07-.43c.26-1.06.19-2.14.37-3.22.17-.53.57-.72,1.09-.72.59,0,1.19-.02,1.78,0,.96,0,1.92-.03,2.88.02.55.05.76.39.78.9v1.42c.02.94-.19,1.88-.23,2.83l-.13.87-.08.71-.15.99c-.3,1.84-.68,3.65-1.09,5.46-.26.81-.4,1.64-.69,2.44-.3,1.01-.61,2-.96,3l-.3.88c-.23.57-.46,1.14-.64,1.71-.42.92-.71,1.89-1.19,2.78-.78,1.85-1.73,3.61-2.75,5.33l-.75,1.16c-.35.56-.66,1.14-1.07,1.65-.56.79-1.12,1.58-1.74,2.32l-.46.54-.52.61-.44.56c-.82.81-1.64,1.64-2.46,2.45l-.56.46-1.1.87-.74.61c-.65.51-1.35.94-2.02,1.41-.85.48-1.69,1-2.57,1.44-1.01.46-2.03.89-3.06,1.31-.74.26-1.48.49-2.23.68-.64.18-1.3.27-1.93.45-.57.19-1.18.12-1.75.3-.96.08-1.89.24-2.85.26-.49.01-.97,0-1.46,0-.57-.01-1.13-.02-1.7,0-.76.02-1.52,0-2.28-.07-1.46-.23-2.94-.29-4.38-.67-.79-.18-1.6-.36-2.37-.61-1.01-.28-2.01-.62-2.97-1.03-.74-.3-1.45-.63-2.15-.99-1.13-.59-2.22-1.23-3.26-1.96l-1-.72c-.59-.5-1.23-.94-1.77-1.5l-1.29-1.29c-.5-.52-1.07-1.01-1.47-1.62l-.77-.96c-1.33-1.71-2.33-3.62-3.28-5.56-.41-.84-.69-1.72-1.03-2.57l-.43-1.26-.48-1.54c-.22-.87-.39-1.73-.59-2.6-.12-.54-.17-1.1-.3-1.66l-.07-.42-.14-1.14c-.06-.81-.25-1.61-.25-2.43-.01-.62.08-1.25-.12-1.84-.07-.55-.09-1.08.01-1.62.24-1.25.06-2.5.09-3.75.06-.77-.08-1.54.07-2.3.22-.68.11-1.38.11-2.08-.02-1.47.24-2.94.19-4.41v-.49c.36-1.26.05-2.57.24-3.84l.13-1.52.07-1.23.11-1.19.07-1.41c.17-1.32.11-2.65.28-3.95.11-1.07.18-2.14.25-3.2.21-.56.06-1.16.14-1.74.22-2.18.42-4.36.58-6.54l.13-1.54c.17-.79.14-1.62.24-2.43l.13-1.01.07-.9.12-1.48c.2-.75.11-1.52.23-2.29.15-.91.15-1.83.28-2.74.09-.89.18-1.77.26-2.66.18-.97.12-1.95.29-2.92.12-.82.17-1.65.25-2.48l.12-1.52c.23-.81.13-1.66.24-2.49.24-1.54.34-3.11.48-4.66-.04-.63.18-1.24.17-1.86.09-.9.18-1.78.26-2.67.17-1.09.15-2.19.29-3.27.08-.9.18-1.78.25-2.68.22-.61.05-1.25.14-1.87.24-1.57.24-3.17.39-4.75l.12-1.23c.13-1.22.16-2.44.24-3.66l.12-1.57c.09-1.6.24-3.21.33-4.82.06-1.1-.04-1.17-1.13-1.18-.24,0-.49,0-.72,0-.33,0-.65,0-.98,0-.9.03-1.79.03-2.69,0-1.79.04-3.57.04-5.36,0-.91.03-1.82.04-2.74,0-.9.03-1.82.03-2.72,0-.92.03-1.83.03-2.74,0-1.79.04-3.58.04-5.37.01-.92.02-1.83.02-2.75,0-1.76.02-3.52.03-5.28-.01h-.62c-1.64,0-1.7.04-1.78,1.67l-.03.8c-.2.82-.1,1.68-.23,2.52-.2,1.79-.37,3.58-.47,5.37-.15.83-.15,1.67-.24,2.5l-.11,1.23c-.16,1.74-.31,3.48-.42,5.24l-.12,1.07c-.06,1-.18,1.99-.24,2.99-.19,1.15-.11,2.31-.3,3.46-.09,1.01-.17,2.02-.24,3.04-.21,1.42-.24,2.84-.36,4.26l-.12,1.23c-.15,1-.17,2.01-.24,3.01-.19,1.42-.24,2.87-.35,4.29-.17,1.04-.17,2.09-.31,3.13-.1,1.05-.17,2.11-.23,3.16l-.12,1.22c-.11.94-.17,1.89-.25,2.82-.17,1.15-.18,2.3-.28,3.45-.13.89-.18,1.79-.26,2.68-.21.55-.06,1.14-.14,1.7-.24,1.39-.23,2.8-.39,4.19l-.13.9c-.11.87-.18,1.75-.24,2.62-.21,1.42-.22,2.87-.47,4.28l-.08.9-.11,1-.02.44c-.17,1.16-.26,2.31-.42,3.47l-.13,1.35c-.22,1.05-.25,2.12-.41,3.18-.16.85-.22,1.71-.31,2.56-.21,1.14-.35,2.29-.53,3.43-.17,1.19-.28,2.38-.53,3.56l-.18,1-.06.58c-.18,1.05-.4,2.1-.55,3.16-.18.8-.26,1.64-.47,2.43-.24.97-.41,1.97-.61,2.95-.18.63-.31,1.26-.47,1.9l-.27,1.06c-.18.62-.32,1.25-.47,1.87-.49,1.58-.94,3.17-1.49,4.73l-.38.96-.21.58-.3.8-.41,1-.22.45c-.48.93-.77,1.94-1.39,2.8l-.34.65c-.38.75-.9,1.38-1.32,2.09-.46.63-.85,1.29-1.41,1.84h0s-.78.94-.78.94c-.66.62-1.22,1.32-1.98,1.83l-1.27.96-1.38.88c-1.26.7-2.62,1.18-3.99,1.62-.54.13-1.09.28-1.63.4-.68.1-1.35.18-2.01.34l-.24.03-.84.05c-.45-.01-.9-.01-1.35-.01h-.82l-.55-.04-.18-.03-.65-.15-.39-.07-.76-.15-1.39-.38-1.48-.5c-.87-.39-1.72-.79-2.54-1.29l-1.33-.89c-.55-.43-1.13-.82-1.63-1.33-.58-.39-.98-.94-1.44-1.45l-.65-.76-.5-.68-.56-.82c-.62-1.09-1.22-2.2-1.63-3.39l-.35-1.01c-.21-.58-.27-1.18-.45-1.77-.21-.62-.09-1.29-.3-1.91-.11-1.16-.11-2.33,0-3.49l.31-1.42.28-.91.49-1.36c.58-1.36,1.33-2.63,2.06-3.9.66-.95,1.3-1.95,1.96-2.92l.72-.99c.35-.54.77-1.05,1.14-1.58.59-.77,1.12-1.57,1.73-2.34l.29-.4c.6-.74,1.12-1.57,1.7-2.33l.79-1.08c.47-.66.97-1.32,1.39-2.01.48-.62.94-1.27,1.34-1.95,1.46-2.1,2.78-4.29,4.09-6.48.36-.61.7-1.23,1.05-1.84l.79-1.42c.38-.67.67-1.39,1.08-2.03.96-1.66,1.66-3.45,2.5-5.15.39-.91.81-1.82,1.19-2.73l.1-.23c.35-.84.69-1.7,1.02-2.55.46-1.17.94-2.33,1.31-3.53.56-1.27.83-2.63,1.27-3.94.57-.94.68-2.06,1.06-3.07.17-.57.34-1.13.48-1.71.21-.61.37-1.23.44-1.88.31-.73.44-1.51.65-2.27.28-.77.46-1.58.61-2.38l.28-1.17.1-.4.28-1.48c.4-1.76.79-3.53,1.07-5.32.14-.68.23-1.36.36-2.03.3-1.41.46-2.84.7-4.25l.09-.74.15-1c.15-1.01.23-2.04.37-3.06l.12-.7.08-.86.11-1.03c.17-1.77.41-3.53.53-5.3.04-.9.23-1.8.19-2.71.23-1.12.09-2.24.23-3.36l.12-1.39c.04-.59-.05-1.19.07-1.77.26-1.22.02-2.47.11-3.71l.08-.63c.14-1.63.27-3.24-.09-4.86-.85-.42-1.79-.18-2.67-.35-2.53-.04-5.05-.48-7.59-.15-.43.05-.85.04-1.28.04-.56-.01-1.11-.02-1.66.1-.75.12-1.51.08-2.25.25l-.71.09-.54.07-.79.12c-.87.15-1.71.4-2.57.61-.94.18-1.83.51-2.73.81-.71.2-1.38.5-2.08.77l-.68.32c-.93.47-1.89.91-2.77,1.46l-1.13.72c-.65.47-1.32.93-1.93,1.45l-1.31,1.2-.92.93c-.47.48-.99.91-1.38,1.47-.5.63-1.03,1.25-1.47,1.93l-.72,1c-1.31,1.95-2.43,3.99-3.59,6.02l-.88,1.51-.64.97-.7,1.02c-.35.53-.85.71-1.45.67l-1.03-.07c-.4-.12-.81-.11-1.22-.11-.19,0-.37,0-.56,0l-1.05-.06c-.42-.22-1.06.04-1.25-.61.28-1.31.96-2.47,1.39-3.73.34-.85.64-1.73,1.01-2.57l.13-.37c.31-.66.51-1.38.8-2.06.41-1.03.8-2.06,1.16-3.1l.5-1.33c.23-.52.42-1.05.59-1.6.3-.59.45-1.23.71-1.84.46-1.09.85-2.21,1.26-3.33l.3-.71c.26-.68.54-1.33.78-2.01l.2-.46.53-1.25.33-.81c.36-.68.66-1.38.94-2.09.67-1.18,1.27-2.4,1.96-3.57l.53-.85c.55-.77,1.08-1.56,1.66-2.3l1.28-1.45.76-.77c.55-.59,1.19-1.09,1.82-1.61.53-.38,1.03-.79,1.6-1.15l1.15-.72c.91-.54,1.89-.98,2.84-1.46l1.17-.49c.53-.17,1.05-.36,1.56-.58l.97-.33.74-.23,1.15-.34c1.28-.31,2.54-.66,3.83-.92l.83-.17c.75-.14,1.51-.26,2.25-.4l.85-.15c.94-.12,1.87-.26,2.81-.42.86-.08,1.73-.15,2.57-.31,1.42-.18,2.85-.18,4.25-.42.21-.01.43,0,.65,0,.42.01.83.02,1.24-.12,1.23-.07,2.47-.22,3.7-.26.17,0,.33,0,.5,0,.42.01.83.02,1.23-.12.67-.09,1.35-.08,2.02-.07.86.01,1.72.02,2.56-.17h.34c1.2.02,2.41-.04,3.61-.11,1.28-.07,2.56-.14,3.84-.09.31,0,.62,0,.94.01.69.02,1.38.03,2.08-.09,1.04-.02,2.09-.02,3.14-.02.59,0,1.19,0,1.79,0l.77.15c3.12-.02,6.23-.07,9.34-.07,6.62-.01,13.24-.02,19.85,0,5.37.02,10.73.07,16.09.11l.8-.03c.92-.17,1.85-.14,2.78-.14,4.78-.02,9.54-.01,14.33-.02l1.52.05c1.94.09,3.89.08,5.84.06.97,0,1.95-.02,2.92-.01.4,0,.81,0,1.22,0h1.22c1.1,0,2.21,0,3.3,0,1.38,0,2.75,0,4.13,0l1.06.11.43,1.19c0,2.27,0,4.54,0,6.81l.06,1.08c.2,2.27.1,4.53.12,6.81" fill="#b1d135"/>
        <path d="m172.29,40.15c-3.14-3.9-8-5.85-14.55-5.85h-77.91c-6.42,0-12.05,1.97-16.86,5.92-4.82,3.95-7.97,9.21-9.44,15.76l-7.23,34.54c-1.48,6.55-.63,11.81,2.5,15.76,3.15,3.95,8.01,5.92,14.56,5.92h53.41l-9.24,43.37h-28.91l4.81-23.09h-46.17l-3.82,18.68c-1.33,6.56-.47,11.81,2.61,15.76,3.08,3.95,7.9,5.93,14.46,5.93h77.91c6.42,0,12.05-1.98,16.86-5.93,4.82-3.95,7.97-9.2,9.44-15.76l7.23-34.54c1.47-6.56.63-11.81-2.52-15.76-3.14-3.94-8-5.92-14.55-5.92h-53.41l9.24-43.37h28.91l-4.82,22.89h46.18l3.82-18.67c1.47-6.52.63-11.72-2.52-15.63" fill="#1a61ad"/>
        <path d="m271.78,77.26l3.22-15.26h-67.06c-5.09,0-9.6,1.61-13.56,4.83-3.95,3.21-6.45,7.36-7.52,12.45l-15.26,71.88c-1.48,6.56-.63,11.82,2.51,15.77,3.15,3.95,7.99,5.92,14.56,5.92h62.65l3.21-15.26h-41.57l17.26-80.32h41.57Z" fill="#1a61ad"/>
        <polygon points="289.45 62 265.96 172.84 308.73 172.84 332.22 62 289.45 62" fill="#1a61ad"/>
        <polygon points="336.94 112.2 333.32 129.47 399.79 129.47 403.4 112.2 336.94 112.2" fill="#1a61ad"/>
        <path d="m518.61,119.42c4.77,1.7,9.42,3.38,14.08,5.02.55.19.76.46.76,1.05-.02,7.07-.01,14.15-.01,21.23l-.03.5-.5.4-.5-.38-.05-.69c0-6.8,0-13.6.01-20.41l-.63-.94c-4.67-1.63-9.33-3.31-13.99-4.98l-.77-.57.58-.77c1.16-.85,2.33-1.69,3.49-2.54l.97-.04-.34.87c-.98.72-1.98,1.44-3.06,2.23" fill="#040404"/>
        <path d="m519.59,87.71c-3.16,0-6.32,0-9.47,0-1.05,0-1.83-.69-1.98-1.69-.14-.97.4-1.85,1.36-2.17l.49-.08.59.43-.43.58-.42.13-.51.82.5.83.87.13c6.15,0,12.3-.01,18.44.01.51,0,.72-.1.65-.65v-1.2s.52-.58.52-.58l.52.57v1.33s.53.52.53.52c2.43-.02,4.87-.01,7.31,0,1.22,0,2.14.87,2.22,2.08.08,1.13-.74,2.16-1.88,2.34l-.19.02-.64-.46.51-.59c.87-.19,1.21-.61,1.14-1.31-.06-.66-.58-1.06-1.41-1.07h-2.38c-1.56,0-3.12,0-4.68-.01l-.54.58v1.27s-.52.57-.52.57l-.52-.59v-1.27s-.54-.56-.54-.56c-3.18.02-6.36.01-9.54.01" fill="#010101"/>
        <path d="m517.85,142.18c-2.22,0-4.45,0-6.67,0-1.96,0-3.07-1.12-3.07-3.07l.06-1.45c.17-1.26,1.4-2.33,2.64-2.33l.62.5-.49.57c-1.48.36-1.77.73-1.77,2.26v.83c.05.9.72,1.63,1.61,1.64,1.31.01,2.61.01,3.92.01.96,0,1.92,0,2.88,0l.37-.41c-.02-.65-.01-1.31,0-1.97.04-1.76,1.51-3.22,3.26-3.23.69,0,1.39,0,2.09,0,.58,0,1.15,0,1.73,0l.68.53-.66.49c-1.17-.01-2.33-.01-3.49,0-1.59.01-2.57.99-2.57,2.57v1.47s.53.56.53.56c1.22-.02,2.43-.02,3.64-.01h1.82l.73.43c.07.55-.31.61-.73.61h-7.12" fill="#010101"/>
        <path d="m525.71,126.09l-.32.53c-.82.82-1.64,1.66-2.49,2.46v.69c.83.79,1.62,1.63,2.43,2.44l.24.96-1-.25c-.81-.8-1.63-1.6-2.42-2.43h-.62c-.82.85-1.67,1.68-2.51,2.52l-.91.17.17-.93c.81-.81,1.59-1.65,2.43-2.43l-.02-.84c-.82-.77-1.6-1.58-2.4-2.37l-.18-.92.93.17c.81.83,1.66,1.64,2.46,2.49h.68c.83-.87,1.7-1.7,2.55-2.56l.74-.18.26.46Z" fill="#020202"/>
        <path d="m525.71,103.1l-.29.45-.68-.18c-.81-.81-1.64-1.6-2.41-2.44h-1c-.74.81-1.55,1.56-2.33,2.34l-.91.15.19-.92c.81-.81,1.6-1.63,2.44-2.41v-.79c-.84-.78-1.64-1.61-2.45-2.41l-.17-.92.93.19c.82.84,1.66,1.64,2.46,2.49h.69c.81-.85,1.64-1.66,2.46-2.49l.93-.17-.18.91c-.81.81-1.6,1.63-2.43,2.42v.79c.82.78,1.61,1.61,2.42,2.42l.34.58Z" fill="#020202"/>
        <path d="m521.76,91.05c2.52.06,4.67.85,6.49,2.48l.36.43-.18.62-.79-.19c-1.06-.98-2.27-1.68-3.68-2-2.88-.66-5.48-.08-7.75,1.85l-.28.26h-.78l.09-.78c.91-.84,1.93-1.51,3.08-1.96,1.13-.46,2.31-.64,3.45-.69" fill="#030202"/>
        <path d="m521.88,108.33c-2.49-.02-4.65-.84-6.49-2.5l-.26-.9.97.14c3.48,2.98,7.99,2.97,11.48-.02l.93-.15-.24.94c-1.83,1.64-3.96,2.45-6.38,2.49" fill="#020202"/>
        <path d="m525.2,145.47v.92l-.48.47-.53-.48c0-.66-.03-1.32,0-1.97l.91-.36c.61.45,1.2.93,1.81,1.4l.71.13-.14-.75-.15-.77.84-.02c.62.43.82,1.39.41,2.04-.43.68-1.29.87-2,.4l-1.38-1.02Z" fill="#020202"/>
        <path d="m521.3,112.23v1.58l-.48.56-.56-.55c0-1.06,0-2.11,0-3.17l.55-.55.49.55v1.58Z" fill="#080707"/>
        <path d="m522.66,112.26v-1.58l.52-.57.5.58c0,1.04-.01,2.08,0,3.11l-.52.57-.5-.58v-1.52Z" fill="#020202"/>
        <path d="m163.89,10.6c-.66,1.13-1.86,1.32-2.95,1.69-.7.24-1.44.34-2.15.56-.82.26-1.38-.13-1.87-.68-.5-.58-.18-1.1.15-1.63,1.5-2.37,2.74-4.88,3.93-7.41l.18-.45c-.78.07-1.19.6-1.63.99-.58.51-1.09.46-1.58,0l-.03-1.49c.93-1.44,3.4-2.42,5.04-2.11l.91.56v1.55c-.49,2.38-1.74,4.43-2.81,6.57l-.21.37-.16.7.65.02c.87-.07,1.75-.42,2.53.27v.52Z" fill="#010101"/>
        <path d="m163.89,10.08c-.9-.28-1.78-.2-2.68-.02h-.88s.25-.84.25-.84c.89-1.71,1.78-3.42,2.54-5.2.26-.62.52-1.24.77-1.86v7.92Z" fill="#fff"/>
        <path d="m124.37,23.25c0,.83-.02,1.66,0,2.49.04,1.16-.47,2.3-1.2,2.57-1.09.41-2.76-.1-3.4-1.06-.54-.82-.94-1.69-.64-2.72.28-.96.18-1.93.14-2.91-.14-2.84-.3-5.67-.31-8.51,0-.87-.15-1.72-.39-2.54-.16-.56-.11-1.08.08-1.59.37-1.04.99-1.36,2.03-1.05l1.5.59c.66.54,1.14.49,1.84.02,1.46-.97,4,.33,4.4,2.27.29,1.39.26,2.85.7,4.22l.46,1.09.78-.82c1.18-1.59,2.35-3.19,3.87-4.47,2-1.7,5-.81,5.96,1.67.78,2.01,1.02,4.11,1.25,6.2.3,2.85.6,5.7.59,8.57,0,1.56-.76,2.66-2.04,3.44l-.62.1c-.93-.69-1.82-1.41-1.88-2.71-.12-2.89-.18-5.79-.44-8.67-.09-1.06-.2-2.11-.44-3.14l-.37-.81-.69.55c-1.27,1.51-1.83,3.35-2.29,5.21-.36,1.47-.68,2.95-1.01,4.43-.3,1.34-1.21,2.35-2.12,2.32-1.29-.04-2.67-1.37-2.88-2.66-.4-2.37-1.03-4.67-1.77-6.96l-.44-.65-.42.69c-.58,1.59-.26,3.24-.24,4.86" fill="#010101"/>
        <path d="m84.74,25.6c2.5.14,4.27-1.1,6.01-2.37.58-.42,1.12-.9,1.66-1.36.84-.72,2.01-.4,2.43.66.23.57.15,1.13-.07,1.67l-.53.97c-3.37,3.9-7.94,5.96-13.06,4.92-2.78-.56-4.75-2.78-5.27-5.97-.59-3.64.39-7.09,1.43-10.53.31-1.04.65-2.06.97-3.1.65-2.06,2.05-3.57,3.71-4.83,3.23-2.46,6.93-3.94,10.86-4.85,1-.23,1.98,1.07,1.58,2.09-.51,1.31-1.48,2.23-2.71,2.88-2.06,1.1-4.13,2.21-6.22,3.25-.93.46-1.66,1.06-2.17,1.96-.53.94-1.16,1.84-1.43,2.91l-.07.73.8-.05c1.74-.63,3.48-1.26,5.24-1.86.71-.25,1.44-.36,2.18-.09,1.06.37,1.39,1.33.75,2.25-.59.84-1.43,1.39-2.27,1.95-2.12,1.42-4.51,2.33-6.76,3.52-1.58.85-1.76,1.25-1.13,2.95.53,1.45,1.66,2.13,3.13,2.29h.93Z" fill="#010101"/>
        <path d="m142.02,22.46c-.04-2.84,1.38-5.1,3.07-7.17,1.03-1.27,4.51-1.71,5.99-.98,1.83.91,2.05,4.11.34,5.24-.66.43-1.35.14-1.95-.15l-1.1.23c-1.07,1.23-1.52,2.71-1.48,4.28.05,1.77,1.47,2.72,3.62,2.62,2.79-.13,5.36-1.07,7.93-2.05.93-.36,1.84-.77,2.76-1.16l.8-.28c.85-.13,1.42.49,1.24,1.33-.2.92-.78,1.58-1.49,2.14-1.98,1.54-4.32,2.3-6.67,3.03-1.52.47-3.04,1.01-4.66,1.06-5.02.14-8.37-3.09-8.41-8.11" fill="#010101"/>
        <path d="m116.91,6.24c.17.64-.36.82-.84,1.01-2.24.86-4.58,1.41-6.92,1.95-3.33.77-6.69,1.48-10.03,2.21-1.12.24-2.49-.84-2.62-2l.58-.7c1.69-.71,3.46-1.15,5.23-1.61,3.98-1.04,7.98-1.99,12.04-2.63,1.32-.2,2.56.62,2.56,1.77" fill="#010101"/>
        <path d="m111.16,15.29c.61,0,1.2,0,1.8.12l1.05.54c.89.82.83,1.41-.25,1.93-2.36,1.13-4.9,1.66-7.41,2.32-2.15.57-4.31,1.06-6.46,1.63l-.88-.14c-.84-.69-1.2-1.66-1.42-2.67l.79-.89c1.42-.76,2.96-1.18,4.5-1.58,2.72-.69,5.46-1.21,8.28-1.26" fill="#010101"/>
        <path d="m7.26,133.58l-1.55-.47c-2.09-.85-3.46-2.44-4.48-4.39-.33-.64-.62-1.3-.78-2.01-.23-1.09.36-2.09,1.42-2.43,1-.31,2.08.18,2.49,1.18.38.93.77,1.86,1.42,2.64l.79.75c1.26.92,2.55.73,3.53-.47.74-.91.97-2.02,1.23-3.12,1.55-6.42,3.11-12.84,4.68-19.25l-.34-.44c-1.91.02-3.81.01-5.72,0-1.1,0-1.99-.81-2.1-1.84-.11-1.06.58-2.02,1.64-2.26l.66-.05c2.15,0,4.29-.02,6.43.01l.73-.59c.7-2.72,1.31-5.46,2.27-8.1.73-2.02,1.58-3.97,3.1-5.55,3.07-3.19,7.72-2.61,9.89,1.26.69,1.23,1.1,2.57,1.2,3.98.08,1.19-.69,2.1-1.88,2.25-1.02.13-2.01-.64-2.21-1.75-.15-.8-.28-1.61-.67-2.34-.79-1.49-2.21-1.71-3.38-.49-.87.9-1.36,2.03-1.81,3.17-1.03,2.63-1.67,5.38-2.38,8.14,1.69,0,3.35,0,4.99,0,1.16,0,2.07.88,2.11,1.99.04,1.19-.87,2.15-2.07,2.16-1.88.02-3.76.02-5.63,0l-.55.44c-1.74,7.23-3.47,14.46-5.29,21.66-.63,2.48-2.06,4.43-4.5,5.49l-1.32.33-.49.08h-1.42Z" fill="#010101"/>
        <polygon points="8.68 133.58 9.17 133.5 9.15 133.58 8.68 133.58" fill="#5e5c5c"/>
        <path d="m33.2,122.46c-.85,1.12-1.67,2.21-2.5,3.29-.43.56-.82,1.16-1.33,1.66-.91.92-2.04,1.1-3.04.49-1.1-.68-1.35-2.12-.48-3.21,1.06-1.35,2.19-2.63,3.3-3.95l1.01-1.19v-.58c-1.25-1.42-2.49-2.85-3.73-4.28-.62-.71-1-1.5-.78-2.46.39-1.68,2.28-2.12,3.58-1.28l1.01.98c.99,1.32,1.99,2.64,2.98,3.96l.1.07c1.04-1.36,2.08-2.71,3.11-4.07.45-.58.96-1.11,1.7-1.29.91-.23,1.73.02,2.34.75.6.73.61,1.55.18,2.38-.36.68-.91,1.19-1.4,1.77-.96,1.14-1.93,2.28-2.92,3.41l.02.58c1.42,1.63,2.84,3.25,4.24,4.9.56.66.76,1.44.52,2.3-.42,1.45-2.25,2.03-3.55,1.14l-1.09-1.1c-1.07-1.41-2.15-2.82-3.26-4.28" fill="#010101"/>
        <path d="m341.32,18.89c-1.35-1.08-2.92-1.31-4.55-.52h-.74c-.58-.43-1.25-.68-1.9-.95-1.54-.63-3.13-.99-4.79-1.13-.41-.04-.98.07-1.12-.55-.12-.65-.36-1.25-.58-1.86-.66-1.89-1.55-3.64-2.94-5.1-1.17-1.24-2.57-2.05-4.24-2.29-1.83-.26-3.5.27-5.05,1.23-1.78,1.12-3.23,2.57-4.47,4.27-.35.47-.59,1.09-1.47.83-2.38-.72-4.81-1-7.27-.4l-.49-.21c-.85-.9-1.9-1.39-3.17-1.41-1.88.08-3.35.94-4.12,2.97-.55,1.49,0,3.74,1.25,4.62.55.38.81.79.79,1.49-.07,2.37.7,4.56,1.71,6.67l-.12.84c-1.09.93-1.97,2.07-2.76,3.26-.83,1.24-1.45,2.62-1.74,4.1-.27,1.35-.2,2.69.36,3.94,1.26,2.87,3.77,4.17,6.6,4.97,1.26.36,2.56.53,3.86.65l.36.28.31,1.05c.52,1.95,1.36,3.73,2.62,5.3l.08.62-.31,1.51c.02,2.01.89,3.4,2.85,4.2,2.22.91,4.98-.49,5.56-2.73.18-.69.42-1.19,1.15-1.44l1-.55c1.7-1.16,3.12-2.61,4.3-4.3.16-.24.27-.78.82-.63,1.13.33,2.28.53,3.45.67,1.93.23,3.81.11,5.64-.58,1.7-.65,2.98-1.8,3.71-3.47.82-1.82.84-3.73.47-5.67-.31-1.61-.83-3.16-1.54-4.62l.2-.93c.53-.5,1.03-1.03,1.48-1.61,1.01-1.26,1.89-2.57,2.46-4.11.11-.3.05-.79.62-.9,1.8-.32,2.82-1.54,3.23-3.22.43-1.73-.18-3.25-1.52-4.33m-5.69,2.6c.53-1.6,1.82-2.47,3.42-2.29.8.08,2.02.84,2.22,1.59l-.89-.63c-1.54-.59-2.94.13-3.81,1.21-.7.87-.74,2.18-.2,2.95-.66-.48-1.03-2-.75-2.83m-6.42,6c1.52,1.71,2.73,3.52,3.77,5.46l-.07.43c-1.58,1.45-3.33,2.63-5.17,3.71l-.26.04c.93-3.14,1.45-6.32,1.73-9.65m-1.6-9.12c.15,1.58.4,3.16.42,4.75l-.08,1.1c-2.28-2.36-4.75-4.41-7.5-6.31,1.88-.38,3.63-.51,5.4-.54h.69c.85.04,1.01.18,1.09.99m-15.9-5.29l1.22-1.58c1.1-1.13,2.17-2.3,3.62-3,1.02-.49,2.05-.87,3.22-.83,1.59.05,2.89.76,3.99,1.86,1.14,1.14,1.91,2.53,2.49,4.02.27.71.46,1.44.74,2.14l-.3.42h-.87c-2.14.06-4.26.26-6.34.73-.88.21-1.32-.43-1.92-.73-1.1-.55-2.15-1.16-3.28-1.64-.84-.36-1.63-.76-2.52-.98l-.04-.4Zm-1.18,1.72l.77-.23c1.25.49,2.49,1.01,3.71,1.57.69.33,1.33.73,2.14,1.17-3.26.84-6.25,1.94-9.17,3.29l.12-.69c.3-1.06.85-1.99,1.28-2.98.33-.74.73-1.44,1.14-2.14m-13.54-2.32c1.48-.91,3.58-.31,4.3,1.19-1.07-1-2.68-1.15-3.92-.32-.97.65-1.77,2.4-1.22,3.61-1.15-1.16-.84-3.45.84-4.48m.71,7.52l.62-.56c1.82.11,3.32-.79,4.13-2.43.5-1,.61-2.01.26-3.07l.28-.45c1.84-.27,3.66-.1,5.47.33l1.03.3-.47.93c-.52,1.01-1.08,2.01-1.55,3.05-.39.86-.75,1.76-1.01,2.67-.17.58-.49.92-.98,1.19-2.08,1.11-3.95,2.51-5.8,3.96l-.47-.14c-.82-1.8-1.39-3.68-1.5-5.77m6.22,23.04c-1.48-.2-2.94-.46-4.35-1-1.38-.52-2.62-1.23-3.57-2.35-1.17-1.36-1.48-2.97-1.14-4.75.28-1.48.98-2.78,1.8-4.01.61-.91,1.38-1.7,2.11-2.52l.38.07c1.28,2.18,2.67,4.29,4.46,6.12l.2.98v.97c.03,2.06.14,4.11.56,6.13l-.44.35Zm.69-15.45c-.3,1.35-.43,2.72-.6,4.09l-.14,1.35c-1.23-1.51-2.36-3-3.26-4.64l-.1-.2-.47-.83.7-.68c1.34-1.21,2.84-2.19,4.38-3.12l.32-.08.03.36c-.28,1.25-.58,2.49-.85,3.74m.47,6.42c.14-2.59.49-5.07,1.04-7.55.28-1.29.66-2.55.98-3.84l.58-.5c2.46-1.15,4.94-2.25,7.56-2.99,1.01-.28,2.03-.55,3.05-.82l.77.12c.83.69,1.77,1.23,2.63,1.9.68.53,1.35,1.07,2.03,1.61,1.33,1.08,2.5,2.33,3.77,3.49.61.56.55,1.31.46,2.01-.18,1.36-.26,2.75-.52,4.11-.3,1.52-.53,3.06-.98,4.54l-.39,1.45c-.07.59-.45.78-.86.96-2.49,1.14-5.01,2.23-7.66,2.98-.83.24-1.68.43-2.5.69-.65.21-1.12-.17-1.56-.47-1.14-.8-2.27-1.63-3.33-2.51-1.48-1.2-2.92-2.44-4.19-3.86l-.53-.55-.33-.79Zm.55,8.79c-.18-1.12-.4-2.24-.49-3.37-.08-1.01-.01-2.04-.01-3.11,2.27,2.31,4.75,4.4,7.52,6.31-1.67.28-3.29.5-4.91.53-.59,0-1.18-.01-1.78.02l-.33-.37Zm3.55,8.76c.88-1.15,1.98-1.66,3.44-1.29.76.2,1.56.79,1.9,1.55l-1.15-.76c-2.43-.7-4.67,1.48-4.08,3.86-.79-.73-.74-2.53-.11-3.36m7.47.43l-.87-.31c-.82-2.36-3.46-3.36-5.71-2.43l-1.04.69-.69-.14c-.79-1.17-1.41-2.43-1.87-3.75l-.38-1.23.35-.42c1.11.04,2.21-.03,3.32-.14,1.29-.12,2.59-.27,3.85-.57.56-.13.97.14,1.38.38.87.53,1.77.99,2.69,1.45,1.23.65,2.53,1.11,3.89,1.68-1.4,1.9-2.89,3.61-4.92,4.79m5.92-6.31l-.85.25c-.91-.4-1.84-.74-2.74-1.15-1-.45-1.95-.98-3.05-1.54,3.22-.89,6.29-1.9,9.22-3.35l-.08.58c-.44,1-.86,2-1.33,2.99-.36.76-.79,1.48-1.17,2.22m12.59-6.98c.1.65.24,1.29.23,1.95.05,1.14-.14,2.24-.65,3.26-.61,1.22-1.55,2.13-2.82,2.62-2.04.79-4.12.79-6.25.38-.57-.11-1.13-.21-1.71-.3l-.21-.57c.83-1.32,1.49-2.71,2.08-4.15.34-.83.72-1.64.94-2.53l.5-.56c2.19-1.2,4.22-2.68,6.21-4.2l.42.12c.47,1.31,1.06,2.57,1.26,3.97m2.66-11.76c-.46,1.31-1.24,2.43-2.06,3.52-.45.61-1,1.11-1.49,1.68l-.38-.03c-1.13-2.25-2.73-4.18-4.29-6.13l-.31-.94c.07-2.43-.08-4.85-.58-7.23l.3-.32c1.97.23,3.91.59,5.67,1.54l.68.28c-1.02,1.42-1.43,2.89-.77,4.55.57,1.39,1.64,2.24,3.04,2.63l.17.43Z" fill="#010101"/>
        <path d="m299.84,18c-1.06.44-2.07.3-3.05-.27l-.65-.76c-.55-1.22.25-2.97,1.22-3.61,1.24-.83,2.85-.69,3.92.32.96,1.63.05,3.69-1.45,4.32" fill="#40c6f3"/>
        <path d="m313.24,55.99c-.98.52-1.96.46-2.94.02l-1.04-1.09c-.58-2.38,1.66-4.56,4.09-3.86l1.15.76c.85,1.41.2,3.41-1.26,4.16" fill="#b4509d"/>
        <path d="m340.41,24.79c-1.33.96-3.18.68-4.03-.47-.55-.78-.5-2.08.2-2.95.87-1.07,2.27-1.8,3.81-1.21l.89.63c.91,1.32.36,3.13-.86,4" fill="#cf3d27"/>
        <path d="m341.27,20.79c-.75-.46-1.51-.8-2.43-.65-1.47.25-2.69,1.48-2.67,3.01l.21,1.17c-.55-.78-.5-2.08.2-2.95.87-1.08,2.27-1.8,3.8-1.21l.9.63Z" fill="#fff"/>
        <path d="m314.5,51.82c-.85-.63-1.82-.94-2.84-.66-1.55.44-2.5,1.78-2.31,3.42l-.08.34c-.59-2.38,1.65-4.56,4.08-3.86l1.15.76Z" fill="#fff"/>
        <path d="m301.29,13.68c-.87-.49-1.76-.86-2.8-.63-1.58.35-2.46,1.85-2.36,3.34l.02.58c-.54-1.22.25-2.97,1.22-3.61,1.24-.83,2.85-.69,3.92.32" fill="#fff"/>
        <path d="m429.58,187.89h-.01s-.91,1.11-.91,1.11c-.77.72-1.42,1.55-2.32,2.14l-1.49,1.12-1.62,1.04c-1.48.82-3.07,1.38-4.67,1.9-.63.15-1.28.33-1.91.47-.79.12-1.58.22-2.35.4l-.28.03H27.21v-8.21h402.37Z" fill="#b1d135"/>
      </g>
      <text transform="translate(0 288.46)" font-family="Candara-Bold, Candara" font-size="35.35" font-weight="700"><tspan x="0" y="0">Beyond Knowledge, </tspan><tspan x="311.54" y="0" letter-spacing="-.06em">T</tspan><tspan x="328.04" y="0">oward Innovation</tspan></text>
    </g>
  </g>
</svg>